<svg width="128" height="128" viewBox="0 0 128 128" fill="none" xmlns="http://www.w3.org/2000/svg">
<g clip-path="url(#clip0_1837_3)">
<rect width="128" height="128" fill="#252422"/>
<path d="M116 137C127.046 137 136 128.046 136 117C136 105.954 127.046 97 116 97C104.954 97 96 105.954 96 117C96 128.046 104.954 137 116 137Z" fill="#DAD7CD"/>
<path d="M103.646 119.976C103.644 119.985 103.644 119.994 103.644 120.003C103.644 120.012 103.644 120.021 103.646 120.03C103.648 120.039 103.651 120.048 103.655 120.057C103.658 120.063 103.658 120.069 103.661 120.074L106.34 124.716L106.34 124.717C106.342 124.719 106.344 124.72 106.345 124.722C106.357 124.74 106.372 124.757 106.392 124.769C106.412 124.78 106.434 124.785 106.456 124.786C106.459 124.786 106.461 124.788 106.463 124.788L106.464 124.788L111.822 124.786L117.18 124.787C117.187 124.787 117.192 124.784 117.198 124.784C117.208 124.783 117.217 124.781 117.226 124.778C117.235 124.775 117.243 124.771 117.251 124.766C117.259 124.762 117.266 124.757 117.273 124.751C117.281 124.745 117.287 124.737 117.293 124.729C117.296 124.724 117.301 124.721 117.305 124.716L119.984 120.075L122.663 115.435L125.342 110.794C125.344 110.791 125.344 110.788 125.345 110.786C125.348 110.78 125.35 110.775 125.352 110.769C125.354 110.762 125.356 110.756 125.357 110.749C125.358 110.743 125.359 110.737 125.36 110.73C125.36 110.727 125.361 110.725 125.361 110.722C125.361 110.72 125.36 110.717 125.36 110.714C125.359 110.708 125.359 110.702 125.357 110.695C125.356 110.689 125.354 110.683 125.352 110.676C125.35 110.67 125.348 110.665 125.345 110.659C125.343 110.656 125.343 110.653 125.342 110.651L122.661 106.01C122.658 106.005 122.654 106.002 122.65 105.997C122.644 105.989 122.638 105.982 122.63 105.975C122.623 105.969 122.616 105.964 122.607 105.96C122.6 105.955 122.592 105.951 122.584 105.948C122.574 105.945 122.564 105.944 122.554 105.942C122.548 105.941 122.543 105.939 122.537 105.939L117.18 105.939C117.177 105.939 117.174 105.94 117.171 105.941C117.166 105.941 117.16 105.942 117.155 105.943C117.148 105.944 117.141 105.946 117.134 105.948C117.128 105.95 117.123 105.952 117.117 105.955C117.114 105.957 117.111 105.957 117.109 105.958C117.106 105.959 117.105 105.962 117.103 105.963C117.097 105.967 117.092 105.97 117.088 105.975C117.082 105.979 117.078 105.984 117.073 105.989C117.069 105.994 117.065 105.998 117.062 106.003C117.061 106.006 117.058 106.007 117.056 106.01L114.377 110.651L111.739 115.22L106.463 115.218C106.46 115.218 106.457 115.22 106.455 115.22C106.448 115.221 106.443 115.221 106.437 115.222C106.43 115.224 106.424 115.225 106.417 115.228C106.411 115.23 106.406 115.232 106.4 115.235C106.397 115.236 106.394 115.236 106.392 115.237C106.39 115.239 106.388 115.241 106.386 115.243C106.38 115.246 106.375 115.25 106.37 115.254C106.365 115.259 106.361 115.263 106.356 115.268C106.352 115.273 106.349 115.278 106.345 115.283C106.344 115.286 106.341 115.287 106.339 115.289L103.66 119.931C103.657 119.936 103.656 119.942 103.654 119.947C103.651 119.957 103.648 119.966 103.646 119.976ZM122.455 106.225L124.971 110.579L119.941 110.58L117.429 106.225L122.455 106.225ZM109.226 120.147L114.253 120.145L111.739 124.5L106.712 124.502L109.226 120.147ZM119.778 119.861L114.749 119.859L117.263 115.505L122.291 115.506L119.778 119.861ZM122.456 115.221L117.428 115.219L119.941 110.866L124.971 110.865L122.456 115.221ZM114.584 120.145L119.612 120.146L117.098 124.501L112.069 124.5L114.584 120.145ZM111.74 115.506L114.254 119.859L109.226 119.861L106.712 115.505L111.74 115.506Z" fill="#008710"/>
<path d="M122.63 105.975C122.638 105.982 122.644 105.989 122.65 105.997C122.654 106.002 122.658 106.005 122.661 106.011L125.342 110.651C125.343 110.653 125.343 110.656 125.345 110.659C125.348 110.665 125.35 110.67 125.352 110.676C125.354 110.683 125.356 110.689 125.357 110.695C125.358 110.702 125.359 110.708 125.36 110.714C125.36 110.717 125.361 110.72 125.361 110.722C125.361 110.725 125.36 110.728 125.36 110.73C125.359 110.737 125.358 110.743 125.357 110.749C125.356 110.756 125.354 110.762 125.352 110.769C125.35 110.775 125.348 110.78 125.345 110.786C125.344 110.788 125.344 110.791 125.342 110.794L117.305 124.716L117.293 124.729C117.286 124.737 117.281 124.745 117.273 124.751C117.266 124.757 117.259 124.762 117.251 124.766C117.243 124.771 117.235 124.775 117.226 124.778C117.217 124.781 117.208 124.783 117.198 124.784C117.192 124.784 117.187 124.787 117.18 124.788L106.464 124.788L106.463 124.788C106.461 124.788 106.459 124.786 106.456 124.786C106.434 124.785 106.412 124.781 106.392 124.769C106.372 124.757 106.357 124.74 106.345 124.722C106.344 124.72 106.342 124.719 106.341 124.717L106.34 124.716L103.661 120.074C103.658 120.069 103.658 120.063 103.655 120.057C103.651 120.048 103.647 120.039 103.646 120.03C103.644 120.021 103.644 120.012 103.644 120.003L103.646 119.976C103.648 119.966 103.651 119.957 103.654 119.947L103.66 119.931L106.339 115.289C106.341 115.287 106.344 115.285 106.345 115.283C106.349 115.278 106.352 115.273 106.356 115.269C106.361 115.264 106.365 115.259 106.371 115.254C106.375 115.25 106.38 115.246 106.386 115.243C106.388 115.241 106.39 115.239 106.392 115.237C106.394 115.236 106.397 115.236 106.4 115.235C106.405 115.232 106.411 115.23 106.417 115.228C106.424 115.225 106.43 115.224 106.437 115.222C106.443 115.221 106.448 115.221 106.455 115.22L106.463 115.218L111.739 115.22L117.056 106.01C117.058 106.007 117.061 106.006 117.062 106.003C117.066 105.998 117.069 105.994 117.073 105.989C117.078 105.984 117.082 105.979 117.087 105.975C117.092 105.97 117.097 105.967 117.103 105.963C117.105 105.962 117.106 105.959 117.109 105.958C117.111 105.957 117.114 105.957 117.117 105.955C117.123 105.952 117.128 105.95 117.134 105.948C117.141 105.946 117.148 105.944 117.155 105.943C117.161 105.942 117.166 105.941 117.171 105.941L117.18 105.939L122.537 105.939C122.543 105.939 122.548 105.941 122.554 105.942C122.564 105.943 122.574 105.945 122.584 105.948C122.592 105.951 122.6 105.955 122.607 105.96C122.616 105.964 122.623 105.969 122.63 105.975ZM103.949 120.002L106.464 124.359L108.978 120.004L106.464 115.648L106.464 115.646L103.949 120.002ZM109.226 120.147L106.712 124.502L111.739 124.5L114.253 120.145L109.226 120.147ZM114.584 120.145L112.069 124.5L117.098 124.501L119.612 120.146L114.584 120.145ZM106.712 115.505L109.226 119.861L114.254 119.859L111.74 115.506L106.712 115.505ZM117.263 115.505L114.749 119.859L119.778 119.861L122.292 115.506L117.263 115.505ZM119.941 110.866L117.428 115.219L122.457 115.221L124.971 110.866L119.941 110.866ZM117.429 106.225L119.941 110.58L124.971 110.579L122.455 106.225L117.429 106.225ZM111.987 115.362L111.988 115.363L114.501 119.716L119.693 110.723L117.181 106.368L117.181 106.367L111.987 115.362Z" fill="#252422"/>
<path d="M125.343 110.794L125.345 110.786C125.348 110.78 125.35 110.775 125.352 110.769C125.354 110.763 125.356 110.756 125.357 110.75C125.359 110.743 125.359 110.737 125.36 110.73C125.36 110.728 125.362 110.725 125.361 110.722L125.36 110.714C125.359 110.708 125.359 110.702 125.357 110.695L125.352 110.676C125.35 110.67 125.348 110.665 125.345 110.659C125.343 110.656 125.343 110.653 125.342 110.651L122.662 106.011C122.658 106.005 122.654 106.002 122.65 105.997C122.644 105.989 122.638 105.982 122.63 105.975C122.623 105.969 122.616 105.964 122.607 105.96L122.584 105.948C122.574 105.945 122.564 105.943 122.554 105.942C122.548 105.941 122.543 105.939 122.537 105.939L117.181 105.939L117.171 105.941C117.166 105.941 117.161 105.942 117.155 105.943L117.135 105.948C117.128 105.95 117.123 105.953 117.117 105.955L117.109 105.958L117.103 105.963C117.097 105.967 117.092 105.97 117.088 105.975L117.074 105.989L117.062 106.004C117.061 106.006 117.058 106.007 117.057 106.01L111.739 115.22L106.464 115.218L106.455 115.22C106.449 115.221 106.443 115.221 106.437 115.222L106.417 115.228C106.411 115.23 106.406 115.232 106.4 115.235L106.392 115.237C106.39 115.239 106.388 115.241 106.386 115.243C106.38 115.246 106.376 115.25 106.371 115.254C106.366 115.259 106.361 115.264 106.357 115.269C106.352 115.273 106.349 115.278 106.345 115.283C106.344 115.285 106.341 115.287 106.34 115.289L103.66 119.931L103.654 119.947C103.651 119.957 103.648 119.966 103.646 119.976L103.644 120.003C103.644 120.012 103.644 120.021 103.646 120.03C103.648 120.039 103.652 120.048 103.656 120.057C103.658 120.063 103.658 120.069 103.661 120.074L106.34 124.716L106.341 124.717C106.342 124.719 106.344 124.72 106.345 124.722L106.355 124.735C106.361 124.744 106.369 124.752 106.378 124.759L106.392 124.769C106.412 124.781 106.434 124.785 106.456 124.786C106.459 124.786 106.461 124.788 106.463 124.788L106.464 124.788L117.181 124.788L117.198 124.784C117.208 124.783 117.217 124.781 117.226 124.778C117.235 124.775 117.243 124.771 117.251 124.766C117.255 124.764 117.259 124.762 117.263 124.759L117.274 124.751C117.281 124.745 117.287 124.737 117.293 124.729L117.305 124.716L125.343 110.794ZM106.222 124.855C106.223 124.855 106.224 124.856 106.224 124.856C106.224 124.856 106.223 124.855 106.221 124.854C106.222 124.854 106.222 124.854 106.222 124.855ZM106.215 124.848C106.216 124.849 106.217 124.85 106.218 124.851C106.217 124.85 106.216 124.849 106.215 124.848C106.215 124.848 106.215 124.848 106.215 124.848ZM106.439 124.966C106.441 124.966 106.442 124.967 106.444 124.967L106.444 124.967C106.442 124.967 106.441 124.966 106.439 124.966ZM106.464 115.648L108.978 120.004L106.464 124.359L103.949 120.001L106.464 115.646L106.464 115.648ZM111.739 124.5L106.712 124.502L109.226 120.147L114.254 120.145L111.739 124.5ZM104.159 120.002L106.464 123.996L108.769 120.004L106.464 116.009L104.159 120.002ZM109.331 120.329L107.026 124.32L111.635 124.318L113.939 120.327L109.331 120.329ZM117.098 124.501L112.069 124.5L114.584 120.145L119.613 120.146L117.098 124.501ZM114.688 120.326L112.384 124.318L116.994 124.32L119.298 120.328L114.688 120.326ZM114.254 119.859L109.226 119.861L106.712 115.505L111.74 115.506L114.254 119.859ZM107.026 115.686L109.331 119.679L113.939 119.677L111.635 115.688L107.026 115.686ZM106.283 115.094C106.284 115.093 106.285 115.092 106.286 115.092L106.286 115.091C106.285 115.092 106.284 115.093 106.283 115.094ZM106.338 115.064C106.335 115.066 106.331 115.067 106.326 115.07C106.329 115.068 106.334 115.066 106.338 115.064ZM119.778 119.861L114.749 119.859L117.263 115.505L122.292 115.506L119.778 119.861ZM117.181 106.368L119.693 110.723L114.501 119.716L111.988 115.363L111.987 115.362L117.181 106.367L117.181 106.368ZM117.368 115.687L115.063 119.678L119.673 119.679L121.977 115.688L117.368 115.687ZM112.197 115.362L114.501 119.353L119.484 110.723L117.18 106.73L112.197 115.362ZM122.457 115.221L117.428 115.219L119.941 110.866L124.971 110.866L122.457 115.221ZM120.046 111.048L117.742 115.038L122.352 115.039L124.657 111.047L120.046 111.048ZM124.971 110.579L119.941 110.58L117.429 106.225L122.455 106.225L124.971 110.579ZM117.743 106.406L120.046 110.398L124.657 110.398L122.35 106.406L117.743 106.406ZM125.54 110.749C125.54 110.751 125.539 110.753 125.539 110.755C125.539 110.753 125.54 110.751 125.54 110.749L125.54 110.749ZM125.507 110.579C125.509 110.582 125.51 110.586 125.512 110.589C125.51 110.586 125.509 110.582 125.508 110.579L125.507 110.579ZM117.453 124.823L117.44 124.836L117.429 124.85C117.421 124.86 117.408 124.874 117.393 124.888L117.391 124.889L117.39 124.891C117.374 124.904 117.357 124.915 117.34 124.924L117.34 124.925C117.332 124.929 117.312 124.94 117.288 124.949L117.288 124.949C117.287 124.949 117.287 124.949 117.286 124.949C117.286 124.949 117.285 124.95 117.285 124.95L117.285 124.95C117.264 124.957 117.245 124.96 117.231 124.962C117.229 124.963 117.226 124.964 117.223 124.965C117.214 124.966 117.202 124.968 117.188 124.969L117.184 124.969L117.18 124.969L106.464 124.969L106.459 124.969L106.453 124.969L106.452 124.969L106.452 124.968C106.443 124.968 106.435 124.967 106.428 124.965C106.39 124.962 106.346 124.952 106.302 124.926C106.257 124.901 106.226 124.867 106.204 124.837L106.192 124.823L103.504 120.165L103.503 120.164C103.493 120.145 103.487 120.128 103.484 120.118C103.48 120.108 103.474 120.091 103.47 120.073L103.47 120.073C103.469 120.07 103.469 120.066 103.468 120.063C103.468 120.062 103.467 120.06 103.467 120.059L103.467 120.059C103.462 120.029 103.463 120.004 103.463 120.002L103.463 119.997L103.463 119.992L103.465 119.965L103.465 119.95L103.469 119.935C103.472 119.923 103.475 119.912 103.477 119.907C103.478 119.903 103.478 119.903 103.479 119.901C103.479 119.9 103.479 119.899 103.479 119.899C103.479 119.899 103.479 119.898 103.479 119.898L103.481 119.893L103.483 119.888L103.488 119.871L103.494 119.855L106.183 115.198L106.196 115.178C106.199 115.175 106.201 115.172 106.204 115.169C106.208 115.163 106.215 115.155 106.222 115.147C106.223 115.146 106.223 115.146 106.223 115.145C106.224 115.145 106.224 115.144 106.224 115.144C106.23 115.138 106.238 115.129 106.249 115.12C106.25 115.119 106.252 115.117 106.254 115.115C106.259 115.111 106.265 115.106 106.272 115.101C106.272 115.101 106.273 115.1 106.273 115.1C106.28 115.094 106.292 115.085 106.307 115.077L106.309 115.076C106.322 115.069 106.334 115.065 106.342 115.063L106.342 115.063C106.347 115.061 106.351 115.059 106.356 115.057L106.356 115.057C106.371 115.051 106.385 115.048 106.401 115.045C106.411 115.043 106.42 115.041 106.428 115.04L106.446 115.037L106.463 115.037L111.635 115.038L116.899 105.919C116.907 105.906 116.915 105.896 116.921 105.889C116.927 105.881 116.934 105.873 116.94 105.866C116.944 105.862 116.953 105.852 116.965 105.841C116.973 105.833 116.982 105.827 116.99 105.82C116.997 105.815 117.005 105.809 117.015 105.803L117.019 105.8L117.024 105.797C117.031 105.793 117.038 105.79 117.044 105.788C117.047 105.787 117.049 105.786 117.052 105.785C117.058 105.783 117.065 105.78 117.073 105.778L117.073 105.777C117.092 105.77 117.109 105.767 117.123 105.764L117.123 105.764C117.128 105.763 117.133 105.763 117.139 105.762L117.148 105.76L117.164 105.757L117.181 105.757L122.537 105.757L122.539 105.757L122.54 105.757C122.559 105.758 122.576 105.761 122.585 105.763C122.596 105.765 122.619 105.768 122.642 105.776L122.643 105.777C122.666 105.784 122.684 105.795 122.693 105.8C122.694 105.8 122.695 105.801 122.696 105.802C122.697 105.802 122.698 105.802 122.698 105.803C122.704 105.806 122.711 105.81 122.718 105.815L122.748 105.837L122.749 105.838C122.767 105.853 122.78 105.869 122.788 105.88C122.795 105.887 122.808 105.9 122.819 105.92L122.819 105.92L125.499 110.56L125.502 110.565L125.504 110.57C125.511 110.583 125.515 110.594 125.517 110.601C125.52 110.608 125.522 110.613 125.522 110.614C125.529 110.633 125.533 110.65 125.535 110.659L125.534 110.659C125.537 110.669 125.538 110.678 125.539 110.686C125.54 110.688 125.54 110.691 125.541 110.694C125.542 110.7 125.542 110.707 125.543 110.716L125.543 110.717C125.543 110.735 125.541 110.751 125.539 110.761C125.539 110.762 125.538 110.763 125.538 110.764L125.536 110.781L125.536 110.783L125.526 110.821C125.525 110.822 125.525 110.823 125.525 110.824C125.522 110.835 125.518 110.844 125.515 110.851C125.512 110.86 125.507 110.872 125.5 110.885L117.453 124.823Z" fill="#252422"/>
<path d="M112.322 124.336L114.591 120.307H119.492L117.132 124.336H112.322Z" fill="#008710"/>
<path d="M38.5091 69.3832H47.3773L45.3043 67.2474C45.079 67.0164 45.0134 66.6742 45.136 66.3748L50.8334 52.4598H40.5368L34.788 66.5007L36.9125 68.6907C37.3345 69.1242 37.902 69.3722 38.5093 69.3837L38.5091 69.3832Z" fill="#DAD7CD"/>
<path d="M86.4634 52.4588H52.5871L46.8384 66.4997L48.9628 68.6897C49.8354 69.588 51.3866 69.588 52.2564 68.6897L52.5244 68.4131C53.2686 67.646 54.2667 67.224 55.3332 67.224C56.3997 67.224 57.3978 67.646 58.1449 68.4131L58.4129 68.6897C59.2855 69.588 60.8339 69.588 61.7065 68.6897L61.9774 68.4131C62.7216 67.646 63.7197 67.224 64.789 67.224C65.8555 67.224 66.8536 67.646 67.6007 68.4131L67.8716 68.6925C68.7442 69.5908 70.2926 69.5908 71.1623 68.6925L71.436 68.4131C72.1803 67.6489 73.1784 67.2268 74.2448 67.2268C74.5984 67.2268 74.9378 67.2896 75.2685 67.378C75.3028 67.3894 75.337 67.3951 75.3684 67.4093C76.0014 67.5975 76.5831 67.9283 77.0565 68.416L77.3274 68.6954C77.7637 69.1431 78.3482 69.3912 78.9727 69.3912C79.5972 69.3912 80.1818 69.1431 80.6181 68.6954L80.8918 68.4131C81.6361 67.6489 82.6342 67.2269 83.7006 67.224C84.7671 67.224 85.7652 67.646 86.5094 68.4102L86.7889 68.6954C87.6615 69.5937 89.207 69.5937 90.0796 68.6954L92.2154 66.4997L86.4634 52.4588Z" fill="#DAD7CD"/>
<path d="M62.5705 76.8511C62.5705 77.2104 62.0287 77.2104 62.0287 76.8511C62.0287 76.4889 62.5705 76.4889 62.5705 76.8511Z" fill="#DAD7CD"/>
<path d="M62.933 78.625C62.7334 78.6963 62.5224 78.7419 62.3 78.7419C62.0776 78.7419 61.8666 78.6963 61.667 78.625L60.3667 80.2561H64.2333L62.933 78.625Z" fill="#DAD7CD"/>
<path d="M57.8711 81.8784H66.7254V84.5817H57.8711V81.8784Z" fill="#008710"/>
<path d="M87.7275 70.9393C86.9319 70.7967 86.199 70.4175 85.623 69.8215L85.3436 69.5363C84.9073 69.0886 84.3227 68.8405 83.6982 68.8405C83.0737 68.8405 82.4891 69.0886 82.0528 69.5363L81.7791 69.8186C81.0349 70.5857 80.0368 71.0078 78.9674 71.0078C77.901 71.0078 76.9029 70.5857 76.1586 69.8186L75.8877 69.5392C75.8706 69.5221 75.8535 69.5107 75.8364 69.4964V91.1823H74.2139V68.8485C73.5979 68.8571 73.0248 69.0995 72.5942 69.5415L72.3204 69.821C71.5762 70.5851 70.5781 71.0072 69.5116 71.0072C68.4452 71.0072 67.4471 70.5852 66.7 69.8181L66.4291 69.5386C65.5565 68.6404 64.0081 68.6404 63.1355 69.5386L62.8646 69.8152C62.1204 70.5823 61.1223 71.0043 60.0529 71.0043C58.9865 71.0043 57.9884 70.5823 57.2413 69.8152L56.9732 69.5386C56.1007 68.6404 54.5523 68.6404 53.6797 69.5386L53.4116 69.8152C52.8641 70.3798 52.1769 70.7534 51.4269 70.9131V91.1822H49.8044L49.8158 71.0043H39.3026V91.1852H36.1773V92.8135H89.5731V91.1852H87.731L87.7275 70.9393ZM68.3508 85.3909C68.3508 85.8386 67.9887 86.2007 67.541 86.2007H57.0619C56.6142 86.2007 56.2521 85.8385 56.2521 85.3909V81.0651C56.2521 80.6174 56.6142 80.2553 57.0619 80.2553H58.2938L60.5208 77.4636C60.4524 77.2697 60.4096 77.0643 60.4096 76.8505C60.4096 75.8068 61.2594 74.9571 62.303 74.9571C63.3467 74.9571 64.1965 75.8068 64.1965 76.8505C64.1965 77.0672 64.1537 77.2697 64.0853 77.4636L66.3095 80.2553H67.5413C67.989 80.2553 68.3511 80.6174 68.3511 81.0651L68.3508 85.3909ZM80.0424 81.3473C80.0424 81.795 79.6803 82.1572 79.2326 82.1572C78.7849 82.1572 78.4228 81.795 78.4228 81.3473V79.3085H78.1148C77.6671 79.3085 77.305 78.9463 77.305 78.4986C77.305 78.051 77.6671 77.6888 78.1148 77.6888H79.2326C79.6803 77.6888 80.0424 78.051 80.0424 78.4986L80.0424 81.3473Z" fill="#DAD7CD"/>
<path d="M43.7133 43.4791C43.4453 43.4791 43.1972 43.6103 43.0461 43.8299C42.8949 44.0495 42.8607 44.3289 42.9548 44.5798C44.0812 47.5312 46.9584 49.5159 50.1094 49.5159C53.0921 49.5159 55.8154 47.748 57.0584 45.0646V51.957H58.681V45.0537H70.6889V51.957H72.3114V45.0537H73.0956C74.3361 47.7427 77.0621 49.5135 80.0507 49.5135C83.2045 49.5135 86.0789 47.5288 87.2053 44.5774C87.2994 44.3293 87.2652 44.047 87.114 43.8274C86.9629 43.6079 86.712 43.4767 86.4468 43.4767H81.2284V40.2202H86.4468C86.7148 40.2202 86.9629 40.0891 87.114 39.8695C87.2652 39.6499 87.2994 39.3705 87.2053 39.1195C86.0789 36.1682 83.2017 34.1835 80.0507 34.1835C77.0622 34.1835 74.3361 35.9543 73.0956 38.6433L57.0672 38.649C55.8268 35.96 53.1007 34.1892 50.1122 34.1892C46.9583 34.1892 44.0839 36.1739 42.9576 39.1252C42.8635 39.3733 42.8977 39.6556 43.0488 39.8752C43.1999 40.0948 43.4509 40.2259 43.7161 40.2259H48.9344V43.4824L43.7133 43.4791Z" fill="#008710"/>
<rect x="36" y="91" width="54" height="2" fill="#008710"/>
<rect x="70.7" y="45" width="1.6" height="7" fill="#DAD7CD"/>
<rect x="57.0554" y="45.04" width="1.7" height="7" fill="#DAD7CD"/>
</g>
<defs>
<clipPath id="clip0_1837_3">
<rect width="128" height="128" fill="white"/>
</clipPath>
</defs>
</svg>
