<svg width="128" height="128" viewBox="0 0 128 128" fill="none" xmlns="http://www.w3.org/2000/svg">
<g clip-path="url(#clip0_1838_215)">
<rect width="128" height="128" fill="#E2F0E4"/>
<path d="M23.1876 81.3388C23.1817 81.3726 23.1802 81.4053 23.1816 81.4396C23.1814 81.4742 23.1809 81.5074 23.189 81.5407C23.1949 81.5777 23.2093 81.6108 23.2241 81.6454C23.233 81.6666 23.2331 81.6879 23.2449 81.7083L33.3181 99.1623L33.3203 99.1648C33.3247 99.1723 33.3336 99.1762 33.338 99.1837C33.3816 99.2523 33.438 99.3159 33.5143 99.36C33.5907 99.4041 33.6725 99.4215 33.7551 99.4246C33.7647 99.4251 33.7726 99.4309 33.7813 99.431L33.7837 99.4311L53.9293 99.424L74.0785 99.4301C74.1027 99.4291 74.1211 99.4187 74.1434 99.4166C74.1807 99.4121 74.2172 99.4071 74.2516 99.3947C74.2841 99.3836 74.3135 99.3671 74.3429 99.3506C74.3733 99.3346 74.4014 99.316 74.4277 99.294C74.4552 99.2701 74.4776 99.2421 74.5016 99.2112C74.5147 99.1928 74.5337 99.1814 74.5455 99.1609L84.6202 81.711L94.6923 64.2658L104.767 46.8149C104.773 46.8047 104.773 46.7931 104.778 46.7838C104.787 46.7631 104.797 46.7425 104.804 46.7203C104.811 46.6962 104.818 46.673 104.823 46.6473C104.828 46.6225 104.831 46.5996 104.832 46.5756C104.834 46.565 104.839 46.5557 104.839 46.5456C104.838 46.5355 104.833 46.526 104.832 46.5158C104.83 46.4911 104.828 46.4689 104.822 46.4444C104.817 46.4191 104.812 46.3961 104.803 46.3725C104.794 46.3488 104.788 46.3286 104.776 46.3073C104.771 46.2968 104.771 46.2858 104.767 46.2768L94.6872 28.8292C94.6754 28.8087 94.6573 28.7971 94.643 28.7789C94.6207 28.7486 94.5993 28.7213 94.5695 28.6954C94.5429 28.6726 94.5146 28.6551 94.4833 28.6382C94.4545 28.6216 94.4265 28.6054 94.3944 28.5944C94.3581 28.5821 94.3222 28.5775 94.2831 28.5723C94.2611 28.5695 94.2419 28.5597 94.2198 28.5593L74.0784 28.559C74.0659 28.5592 74.0549 28.5653 74.0433 28.566C74.0225 28.5677 74.0035 28.5704 73.9811 28.5748C73.9548 28.5795 73.9304 28.5853 73.9053 28.5944C73.8812 28.6016 73.8609 28.611 73.8386 28.6217C73.8297 28.6264 73.8186 28.6262 73.8096 28.631C73.8001 28.6367 73.7948 28.646 73.7867 28.6513C73.7657 28.664 73.7475 28.6783 73.7292 28.6951C73.7099 28.7112 73.6934 28.729 73.6764 28.7478C73.6599 28.7656 73.6464 28.7826 73.6336 28.8025C73.6282 28.8118 73.6178 28.817 73.6119 28.8272L63.5367 46.2781L53.6195 63.4551L33.7824 63.4504C33.7698 63.4506 33.7598 63.4573 33.7497 63.4576C33.7265 63.4591 33.7066 63.4613 33.6827 63.4661C33.6564 63.4708 33.6344 63.4767 33.6092 63.4858C33.5847 63.494 33.5649 63.5024 33.5426 63.5131C33.5336 63.5179 33.5225 63.5177 33.5136 63.5224C33.5046 63.5272 33.4987 63.5374 33.4907 63.5427C33.4697 63.5555 33.4515 63.5698 33.4332 63.5865C33.4139 63.6027 33.3974 63.6205 33.3804 63.6392C33.3644 63.6561 33.3507 63.6755 33.3376 63.694C33.3322 63.7033 33.3218 63.7084 33.3164 63.7177L23.2412 81.1686C23.2299 81.1881 23.2284 81.2121 23.2196 81.2318C23.2091 81.2693 23.196 81.3027 23.1876 81.3388ZM93.9114 29.6353L103.37 46.008L84.4571 46.0106L75.0114 29.6353L93.9114 29.6353ZM44.169 81.983L63.0732 81.9755L53.6195 98.3499L34.7157 98.3565L44.169 81.983ZM83.8439 80.9052L64.9355 80.9004L74.3877 64.5288L93.2961 64.5336L83.8439 80.9052ZM93.9165 63.4591L75.0081 63.4542L84.4581 47.0863L103.371 47.0837L93.9165 63.4591ZM64.3142 81.9744L83.2221 81.9802L73.7683 98.3546L54.8599 98.3497L64.3142 81.9744ZM53.6227 64.5334L63.0738 80.8994L44.1695 80.9069L34.7173 64.5278L53.6227 64.5334Z" fill="#008710"/>
<path d="M94.5696 28.6951C94.5994 28.7209 94.6213 28.7488 94.6436 28.779C94.6579 28.7971 94.6754 28.8092 94.6871 28.8296L104.767 46.2776C104.771 46.2865 104.771 46.2972 104.776 46.3074C104.787 46.3287 104.794 46.3489 104.803 46.3725C104.812 46.396 104.817 46.419 104.822 46.4442C104.828 46.4684 104.83 46.4909 104.832 46.5154C104.832 46.5255 104.838 46.5357 104.839 46.5459C104.839 46.556 104.833 46.5655 104.832 46.576C104.831 46.5999 104.828 46.6228 104.824 46.6475C104.819 46.6732 104.811 46.6965 104.803 46.7206C104.797 46.7427 104.787 46.7631 104.778 46.7835C104.772 46.7928 104.774 46.8052 104.768 46.8154L74.546 99.1612L74.5011 99.2117C74.4773 99.2423 74.4553 99.2705 74.428 99.2943C74.4016 99.3163 74.3735 99.3348 74.3432 99.3508C74.3138 99.3674 74.2836 99.3836 74.2512 99.3947C74.2168 99.407 74.1807 99.4129 74.1435 99.4174C74.1213 99.4194 74.1028 99.4299 74.0787 99.4309L33.7842 99.4312L33.7818 99.4311C33.7732 99.4311 33.7649 99.425 33.7554 99.4243C33.6729 99.4213 33.5909 99.4044 33.5146 99.3605C33.4383 99.3164 33.3816 99.252 33.338 99.1834C33.3336 99.1762 33.3251 99.1722 33.3208 99.1649L33.3186 99.1624L23.245 81.7082C23.2333 81.6878 23.2331 81.6665 23.2243 81.6453C23.2096 81.6108 23.1947 81.5779 23.1887 81.5411C23.1806 81.5079 23.1814 81.4746 23.1816 81.44L23.1876 81.3392C23.1961 81.3031 23.2091 81.2689 23.2195 81.2315L23.2411 81.1688L33.3165 63.7178C33.3219 63.7086 33.3323 63.703 33.3377 63.6937C33.3507 63.6754 33.3642 63.656 33.38 63.6393C33.397 63.6206 33.4142 63.6027 33.4335 63.5865C33.4517 63.57 33.4695 63.5555 33.4902 63.5429C33.4982 63.5376 33.5051 63.5274 33.514 63.5227C33.5228 63.5181 33.5335 63.5181 33.5423 63.5136C33.5646 63.5029 33.5848 63.4938 33.6094 63.4856C33.6344 63.4766 33.6564 63.4707 33.6825 63.466C33.7063 63.4612 33.7263 63.4588 33.7494 63.4573L33.7822 63.4508L53.6202 63.4551L73.6123 28.8277C73.6182 28.8175 73.6287 28.812 73.634 28.8027C73.6467 28.7829 73.66 28.7659 73.6764 28.7483C73.6934 28.7296 73.7097 28.7112 73.7289 28.695C73.7472 28.6784 73.7657 28.6645 73.7866 28.6519C73.7946 28.6466 73.8 28.6368 73.8095 28.6311C73.8184 28.6264 73.8302 28.6264 73.8392 28.6216C73.8613 28.611 73.8819 28.6018 73.9057 28.5946C73.9307 28.5856 73.9551 28.5798 73.9812 28.5751C74.0036 28.5707 74.0226 28.5678 74.0434 28.5662L74.0786 28.5598L94.2197 28.5597C94.2418 28.5601 94.2611 28.5692 94.283 28.572C94.3222 28.5773 94.3587 28.582 94.395 28.5943C94.4269 28.6053 94.4549 28.6216 94.4836 28.6382C94.5148 28.6549 94.5431 28.6724 94.5696 28.6951ZM24.3287 81.4355L33.7844 97.82L43.2387 81.4448L33.786 65.0655L33.783 65.0602L24.3287 81.4355ZM44.1693 81.9833L34.7161 98.3567L53.6195 98.3501L63.0733 81.9758L44.1693 81.9833ZM64.3143 81.9745L54.86 98.3498L73.7689 98.3548L83.2226 81.9804L64.3143 81.9745ZM34.7172 64.5278L44.17 80.907L63.0739 80.8995L53.6232 64.5335L34.7172 64.5278ZM74.3879 64.5286L64.9358 80.9002L83.8446 80.9052L93.2967 64.5336L74.3879 64.5286ZM84.458 47.0866L75.008 63.4546L93.9168 63.4597L103.371 47.0844L84.458 47.0866ZM75.0118 29.6357L84.4572 46.0107L103.37 46.0085L93.9115 29.6355L75.0118 29.6357ZM54.5524 63.9909L54.5544 63.9958L64.0051 80.3617L83.5269 46.549L74.0796 30.1729L74.0788 30.1701L54.5524 63.9909Z" fill="#252422"/>
<path d="M104.768 46.815L104.778 46.7837C104.787 46.7632 104.797 46.7427 104.803 46.7207C104.811 46.6967 104.819 46.6735 104.824 46.6479C104.828 46.6232 104.831 46.5997 104.832 46.5758C104.833 46.5654 104.839 46.5558 104.839 46.5458L104.832 46.5158C104.83 46.4914 104.828 46.4681 104.822 46.4438L104.803 46.3728C104.795 46.3493 104.788 46.3286 104.776 46.3073C104.771 46.2972 104.771 46.2866 104.767 46.2778L94.6874 28.8299C94.6757 28.8096 94.6578 28.7973 94.6435 28.7792C94.6213 28.749 94.5995 28.7209 94.5698 28.6951C94.5433 28.6724 94.5149 28.6552 94.4839 28.6385L94.3955 28.5944C94.3591 28.5821 94.3222 28.5771 94.283 28.5718C94.2612 28.569 94.2419 28.5603 94.2198 28.56L74.0787 28.5601L74.0437 28.566C74.0229 28.5677 74.0037 28.571 73.9813 28.5754L73.9064 28.5945C73.8825 28.6017 73.8612 28.6112 73.839 28.6218L73.8098 28.6311L73.7871 28.6519C73.7662 28.6645 73.7472 28.6786 73.7289 28.6953L73.6768 28.7483L73.6344 28.803C73.629 28.8122 73.6185 28.8174 73.6126 28.8274L53.6202 63.4553L33.7827 63.4506L33.7494 63.4576C33.7264 63.4591 33.7066 63.4613 33.6829 63.4661L33.6095 63.4853C33.5849 63.4935 33.5647 63.5028 33.5424 63.5135L33.5141 63.5226C33.5052 63.5273 33.4987 63.5377 33.4908 63.543C33.4701 63.5555 33.4522 63.57 33.4341 63.5865C33.4149 63.6026 33.3975 63.6207 33.3805 63.6394C33.3647 63.6561 33.3505 63.6755 33.3375 63.6938C33.3321 63.7029 33.322 63.7088 33.3166 63.718L23.2413 81.169L23.2199 81.2313C23.2095 81.2686 23.1962 81.3029 23.1878 81.339L23.1817 81.4401C23.1816 81.4747 23.1807 81.508 23.1888 81.5412C23.1948 81.578 23.2099 81.6113 23.2246 81.6457C23.2333 81.6668 23.2338 81.6882 23.2453 81.7085L33.3188 99.1623L33.321 99.1651C33.3253 99.1723 33.3337 99.1763 33.3381 99.1834L33.3736 99.2339C33.3988 99.2666 33.4277 99.2971 33.4611 99.3237L33.5144 99.3606C33.5906 99.4045 33.673 99.4213 33.7554 99.4244C33.7649 99.425 33.7736 99.4313 33.7822 99.4314L33.7846 99.4312L74.0786 99.4308L74.1439 99.4177C74.1809 99.4133 74.2168 99.407 74.251 99.3949C74.2835 99.3838 74.3141 99.3671 74.3435 99.3506C74.3586 99.3426 74.3734 99.3345 74.3875 99.3251L74.4284 99.2942C74.4556 99.2704 74.4777 99.2422 74.5015 99.2116L74.546 99.1612L104.768 46.815ZM32.8754 99.6836C32.878 99.6859 32.8806 99.6878 32.8817 99.6887C32.8809 99.6881 32.8767 99.6844 32.8715 99.6798C32.873 99.6811 32.8743 99.6826 32.8754 99.6836ZM32.85 99.6597C32.8529 99.6626 32.8559 99.6651 32.8585 99.6676C32.8553 99.6646 32.8521 99.6609 32.8483 99.6572C32.849 99.6578 32.8494 99.659 32.85 99.6597ZM33.6908 100.103C33.6968 100.103 33.7029 100.105 33.7092 100.106L33.7093 100.104C33.7032 100.104 33.697 100.103 33.6908 100.103ZM33.7861 65.0657L43.2387 81.4445L33.7846 97.8196L24.3289 81.4352L33.7831 65.0601L33.7861 65.0657ZM53.6195 98.35L34.7165 98.3569L44.1697 81.9835L63.0734 81.9755L53.6195 98.35ZM25.1169 81.4353L33.7847 96.4545L42.4507 81.4444L33.783 66.4253L25.1169 81.4353ZM44.5641 82.6653L35.8994 97.6731L53.2257 97.6671L61.8908 82.6587L44.5641 82.6653ZM73.7694 98.3549L54.8602 98.3498L64.3144 81.9747L83.2232 81.9804L73.7694 98.3549ZM64.7085 82.6571L56.0424 97.6671L73.3756 97.672L82.0417 82.6619L64.7085 82.6571ZM63.0743 80.8994L44.1701 80.9071L34.7177 64.5277L53.6233 64.5337L63.0743 80.8994ZM35.8993 65.2098L44.5637 80.224L61.8922 80.2169L53.2288 65.2156L35.8993 65.2098ZM33.1031 62.9828C33.1073 62.98 33.1114 62.9769 33.1158 62.974L33.1147 62.9734C33.1105 62.9761 33.107 62.9801 33.1031 62.9828ZM33.3119 62.8717C33.2983 62.8765 33.2828 62.8833 33.2653 62.891C33.2785 62.8849 33.2944 62.8791 33.3119 62.8717ZM83.8446 80.9054L64.936 80.9006L74.3882 64.529L93.2968 64.5337L83.8446 80.9054ZM74.0801 30.1732L83.527 46.5487L64.0051 80.3616L54.5549 63.9957L54.5522 63.9911L74.0788 30.1701L74.0801 30.1732ZM74.7823 65.2113L66.1183 80.2179L83.4509 80.2224L92.1149 65.2158L74.7823 65.2113ZM55.3406 63.9906L64.0052 78.9964L82.739 46.5486L74.0783 31.5359L55.3406 63.9906ZM93.917 63.4596L75.0084 63.4548L84.4586 47.0866L103.371 47.0844L93.917 63.4596ZM84.8527 47.769L76.1906 62.7721L93.5232 62.7766L102.189 47.7671L84.8527 47.769ZM103.371 46.0082L84.4572 46.0107L75.0123 29.6355L93.9113 29.6355L103.371 46.0082ZM76.1933 30.3174L84.8517 45.3273L102.189 45.3258L93.5172 30.3169L76.1933 30.3174ZM105.51 46.647C105.509 46.6539 105.508 46.6608 105.507 46.6677C105.508 46.6613 105.51 46.6546 105.511 46.6476L105.51 46.647ZM105.388 46.006C105.394 46.0187 105.399 46.0319 105.404 46.044C105.399 46.0324 105.395 46.0191 105.389 46.0061L105.388 46.006ZM75.1024 99.5624L75.056 99.6149L75.0114 99.6654C74.9822 99.7016 74.9354 99.7574 74.8762 99.8089L74.8711 99.8137L74.8655 99.8182C74.8049 99.8688 74.7415 99.9101 74.6775 99.9451L74.6778 99.946C74.6483 99.9626 74.5739 100.004 74.4809 100.036L74.4812 100.037C74.4796 100.038 74.4777 100.038 74.4761 100.038C74.4744 100.039 74.473 100.04 74.4714 100.041L74.4712 100.04C74.3932 100.067 74.3216 100.08 74.2697 100.088C74.2602 100.09 74.249 100.094 74.237 100.096C74.2036 100.103 74.1594 100.111 74.1073 100.113L74.0932 100.113L74.0786 100.113L33.7845 100.114L33.7639 100.113L33.7437 100.113L33.7413 100.113L33.7411 100.11C33.7058 100.108 33.6747 100.104 33.6484 100.099C33.5057 100.085 33.3394 100.047 33.1737 99.952C33.0069 99.8556 32.8896 99.7289 32.8079 99.6153L32.7623 99.5636L22.654 82.0489L22.6529 82.0468C22.6129 81.9767 22.5914 81.9112 22.5804 81.8725C22.5649 81.8344 22.5435 81.7731 22.5276 81.7027L22.5257 81.7032C22.5229 81.6916 22.522 81.6797 22.5198 81.6682C22.5187 81.6622 22.5165 81.6564 22.5155 81.6503L22.5164 81.6501C22.4967 81.5394 22.4992 81.4438 22.4993 81.4371L22.4996 81.418L22.5004 81.3992L22.5065 81.2981L22.5102 81.2409L22.5232 81.1838C22.5337 81.1386 22.5461 81.0998 22.5524 81.0799C22.5567 81.0663 22.5577 81.0637 22.5601 81.0558C22.5609 81.0532 22.5616 81.0513 22.562 81.05C22.5623 81.0488 22.5624 81.0479 22.5624 81.0479L22.5678 81.0279L22.5749 81.0089L22.5966 80.946L22.6176 80.8843L32.7273 63.3738L32.7778 63.2983C32.7872 63.286 32.7972 63.2759 32.8054 63.2665C32.8222 63.2439 32.8469 63.2122 32.8756 63.1809C32.877 63.1793 32.8785 63.1775 32.8801 63.1758C32.8814 63.1743 32.8823 63.1724 32.8837 63.1709C32.9049 63.1478 32.9364 63.1161 32.975 63.082C32.9812 63.0764 32.9875 63.07 32.9949 63.0635C33.0134 63.0474 33.0365 63.0299 33.0623 63.0108C33.0643 63.0091 33.0659 63.0067 33.068 63.0049C33.0933 62.9836 33.1361 62.9507 33.194 62.9199L33.2008 62.9161C33.2521 62.8896 33.2971 62.8747 33.3251 62.8663L33.3269 62.8658C33.3428 62.8593 33.3596 62.8512 33.3783 62.8447L33.3775 62.8434C33.434 62.823 33.4892 62.8085 33.5481 62.7972C33.5846 62.7899 33.6182 62.7851 33.6502 62.7816L33.7155 62.7685L33.7824 62.7686L53.2264 62.7723L73.0216 28.4862C73.0501 28.4369 73.0801 28.3991 73.1033 28.3725C73.1267 28.3413 73.1503 28.3121 73.1755 28.2849C73.1879 28.271 73.2244 28.2314 73.2698 28.1908C73.2999 28.1634 73.3306 28.138 73.3631 28.1146C73.3868 28.0945 73.418 28.0709 73.4564 28.0477L73.4722 28.0376L73.4892 28.0281C73.5176 28.013 73.544 28.002 73.5662 27.9933C73.5763 27.9894 73.5859 27.9858 73.5946 27.9828C73.6169 27.9732 73.6443 27.9639 73.6746 27.9536L73.6744 27.9526C73.7464 27.9266 73.8106 27.9121 73.8616 27.903L73.8618 27.9039C73.8807 27.9003 73.9009 27.898 73.9224 27.895L73.9577 27.8884L74.0178 27.8777L74.0787 27.8775L94.2199 27.8774L94.2253 27.8774L94.2312 27.8778C94.3036 27.879 94.3644 27.8916 94.398 27.8994C94.4415 27.9053 94.526 27.9181 94.614 27.9479L94.6193 27.9494C94.7029 27.9785 94.7728 28.0182 94.8069 28.0377C94.8101 28.0395 94.8133 28.0415 94.8167 28.0434C94.82 28.0453 94.8231 28.0463 94.8251 28.0475C94.8476 28.0599 94.8732 28.0747 94.9006 28.0926L95.0139 28.1765L95.0178 28.1803C95.0836 28.2376 95.1316 28.2959 95.1645 28.3381C95.1881 28.363 95.2364 28.4149 95.2791 28.4889L95.2782 28.4891L105.358 45.9364L105.368 45.9532L105.377 45.9713C105.401 46.0205 105.416 46.0632 105.424 46.09C105.434 46.1169 105.443 46.1349 105.444 46.1369C105.47 46.2094 105.484 46.273 105.491 46.3066L105.49 46.3065C105.498 46.3447 105.504 46.3792 105.507 46.4076C105.509 46.4168 105.511 46.427 105.513 46.4378C105.517 46.4613 105.52 46.4896 105.521 46.5216L105.521 46.524C105.523 46.5941 105.514 46.652 105.507 46.6904C105.506 46.6947 105.504 46.6989 105.503 46.703L105.496 46.7664L105.494 46.7756L105.457 46.9164C105.456 46.9203 105.455 46.9246 105.454 46.9285C105.441 46.9676 105.427 47.0028 105.416 47.0283C105.404 47.064 105.387 47.1085 105.359 47.1563L75.1024 99.5624Z" fill="#252422"/>
<path d="M55.8104 97.734L64.3415 82.5828H82.7687L73.8963 97.734H55.8104Z" fill="#008710"/>
</g>
<defs>
<clipPath id="clip0_1838_215">
<rect width="128" height="128" fill="white"/>
</clipPath>
</defs>
</svg>
